<svg width="327" height="108" viewBox="0 0 327 108" fill="none" xmlns="http://www.w3.org/2000/svg">
<path d="M65.8666 1.86666C57.0666 5.73333 57.6 19.3333 66.5333 22.4C80.2666 27.2 88.5333 7.46666 75.2 1.86666C70 -0.266669 70.9333 -0.266669 65.8666 1.86666Z" fill="black"/>
<path d="M97.8666 1.86666C88.9333 5.86666 89.0666 18.4 98.1333 22.1333C105.733 25.3333 113.333 20.1333 113.333 12C113.333 3.73333 105.467 -1.33334 97.8666 1.86666Z" fill="black"/>
<path d="M62.5333 31.4667C59.4666 34.8 59.3333 35.6 58.9333 58.8C58.4 86.5333 59.7333 95.3333 65.0666 100.267C71.0666 105.867 74.6666 107.067 86 107.067C94.9333 107.2 97.7333 106.667 102.667 104C112.667 98.4 113.067 96.8 113.6 63.7333L114 34.9333L110.8 31.4667C106.4 26.8 99.7333 26.8 95.3333 31.3333C92 34.5333 92 34.9333 92 57.2C92 76 91.6 80.1333 89.8666 81.8667C87.3333 84.5333 86 84.5333 83.4666 81.8667C81.7333 80.1333 81.3333 76 81.3333 57.2C81.3333 34.9333 81.3333 34.5333 78 31.3333C73.6 26.8 66.9333 26.8 62.5333 31.4667Z" fill="black"/>
<path d="M3.86665 32.8C0.666647 36.1333 0.666647 36.6667 0.266647 64.4C-1.97697e-05 82.8 0.39998 94.4 1.33331 97.7333C3.59998 105.467 8.39998 106.933 28.8 106.4C44 106 45.3333 105.733 48.5333 102.8C53.3333 98.2667 53.3333 91.0667 48.5333 86.5333C45.6 83.8667 43.4666 83.3333 34.6666 82.9333L24.1333 82.4L23.7333 59.3334C23.3333 36.9334 23.2 36.1333 20.1333 32.8C15.6 28 8.39998 28 3.86665 32.8Z" fill="black"/>
<path d="M126.533 32.8C123.333 36.1333 123.333 36.6667 122.933 64.4C122.4 97.4667 123.2 101.867 130.133 104.8C134 106.4 135.333 106.4 139.2 104.8C145.333 102.267 146.667 97.4667 146.667 78.2667V62.2667L150.133 65.4667C154.4 69.4667 162.533 69.7333 166.533 66.1333L169.333 63.6V79.8667C169.333 98.2667 170.8 102.8 177.333 105.2C182 106.8 186.133 105.6 189.6 101.867C191.467 99.6 191.867 95.0667 192.267 67.7333L192.667 36.2667L189.467 32.8C187.067 30.2667 184.8 29.3333 181.333 29.3333C177.333 29.3333 175.067 30.6667 167.6 37.3333L158.533 45.3333L149.067 37.3333C137.867 27.8667 132.267 26.8 126.533 32.8Z" fill="black"/>
<path d="M205.2 32.8C202 36.1333 202 36.6667 201.6 64.4C201.333 82.8 201.733 94.4 202.667 97.7333C204.933 105.6 209.467 106.933 232.8 106.4C250.8 106 252 105.867 255.2 102.8C260 98.2667 260 91.0667 255.2 86.5333C252.133 83.7333 250.4 83.3333 238.533 82.9333C228.267 82.5333 225.333 82 225.333 80.5333C225.333 79.0667 227.867 78.6667 237.2 78.6667C251.867 78.6667 255.6 77.3333 258 71.4667C260.133 66.2667 259.6 63.4667 255.6 58.9333C253.067 56.2667 251.733 56 239.067 56C227.733 56 225.333 55.6 225.333 54C225.333 52.4 227.6 52 237.2 52C251.867 52 255.6 50.6667 258 44.8C260.133 39.6 259.6 36.8 255.6 32.2667C252.933 29.4667 252 29.3333 230.667 29.3333C208.533 29.3333 208.4 29.3333 205.2 32.8Z" fill="black"/>
<path d="M288.4 32.2667C286.8 34 281.067 48.5333 275.467 64.9333C266.533 91.3333 265.6 95.0667 266.933 98.8C269.867 107.333 283.067 108.267 287.2 100.133C288.133 98.2667 290.267 92.4 292 87.3333C293.6 82.1333 295.467 77.4667 296 76.9333C296.4 76.4 298.533 81.2 300.533 87.7333C304.8 101.733 306.667 104.8 311.733 106C317.467 107.2 322.533 104.667 324.667 99.4667C326.533 94.9333 326.4 93.8667 316.533 65.0667C310.933 48.6667 305.067 34 303.6 32.2667C301.733 30.2667 299.333 29.3333 296 29.3333C292.667 29.3333 290.267 30.2667 288.4 32.2667Z" fill="black"/>
</svg>
